<svg xmlns="http://www.w3.org/2000/svg" width="1440" height="900"><path d="M862,598L986,480L766,501Z" fill="#dcdcdc" stroke="#dcdcdc" stroke-width="1.51"/><path d="M986,480L886,225L766,501Z" fill="#e1e1e1" stroke="#e1e1e1" stroke-width="1.51"/><path d="M886,225L742,251L766,501Z" fill="#e1e1e1" stroke="#e1e1e1" stroke-width="1.51"/><path d="M986,480L1165,342L886,225Z" fill="#e2e2e2" stroke="#e2e2e2" stroke-width="1.51"/><path d="M1115,797L1165,342L986,480Z" fill="#ececec" stroke="#ececec" stroke-width="1.51"/><path d="M862,598L1115,797L986,480Z" fill="#e9e9e9" stroke="#e9e9e9" stroke-width="1.51"/><path d="M766,501L663,803L862,598Z" fill="#f1f1f1" stroke="#f1f1f1" stroke-width="1.51"/><path d="M510,799L663,803L766,501Z" fill="#f0f0f0" stroke="#f0f0f0" stroke-width="1.51"/><path d="M742,251L521,343L766,501Z" fill="#e8e8e8" stroke="#e8e8e8" stroke-width="1.51"/><path d="M920,936L1115,797L862,598Z" fill="#dcdcdc" stroke="#dcdcdc" stroke-width="1.51"/><path d="M1471,353L1408,237L1165,342Z" fill="#e2e2e2" stroke="#e2e2e2" stroke-width="1.51"/><path d="M920,936L1138,852L1115,797Z" fill="#f4f4f4" stroke="#f4f4f4" stroke-width="1.51"/><path d="M663,803L920,936L862,598Z" fill="#dedede" stroke="#dedede" stroke-width="1.51"/><path d="M663,803L657,905L920,936Z" fill="#f7f7f7" stroke="#f7f7f7" stroke-width="1.51"/><path d="M510,799L657,905L663,803Z" fill="#e4e4e4" stroke="#e4e4e4" stroke-width="1.51"/><path d="M1165,342L1231,167L886,225Z" fill="#f9f9f9" stroke="#f9f9f9" stroke-width="1.51"/><path d="M1408,237L1231,167L1165,342Z" fill="#e4e4e4" stroke="#e4e4e4" stroke-width="1.51"/><path d="M521,343L510,799L766,501Z" fill="#dcdcdc" stroke="#dcdcdc" stroke-width="1.51"/><path d="M742,251L574,97L521,343Z" fill="#f0f0f0" stroke="#f0f0f0" stroke-width="1.51"/><path d="M781,-38L574,97L742,251Z" fill="#e8e8e8" stroke="#e8e8e8" stroke-width="1.51"/><path d="M781,-38L742,251L886,225Z" fill="#e4e4e4" stroke="#e4e4e4" stroke-width="1.51"/><path d="M1231,167L916,-7L886,225Z" fill="#e3e3e3" stroke="#e3e3e3" stroke-width="1.51"/><path d="M916,-7L781,-38L886,225Z" fill="#e1e1e1" stroke="#e1e1e1" stroke-width="1.51"/><path d="M510,799L466,871L657,905Z" fill="#e0e0e0" stroke="#e0e0e0" stroke-width="1.51"/><path d="M293,719L466,871L510,799Z" fill="#e2e2e2" stroke="#e2e2e2" stroke-width="1.51"/><path d="M1231,167L1107,-107L916,-7Z" fill="#fbfbfb" stroke="#fbfbfb" stroke-width="1.51"/><path d="M1471,353L1165,342L1553,626Z" fill="#f7f7f7" stroke="#f7f7f7" stroke-width="1.51"/><path d="M1553,626L1165,342L1115,797Z" fill="#d9d9d9" stroke="#d9d9d9" stroke-width="1.51"/><path d="M521,343L293,719L510,799Z" fill="#e9e9e9" stroke="#e9e9e9" stroke-width="1.51"/><path d="M574,97L316,211L521,343Z" fill="#efefef" stroke="#efefef" stroke-width="1.51"/><path d="M496,-35L316,211L574,97Z" fill="#dfdfdf" stroke="#dfdfdf" stroke-width="1.51"/><path d="M242,374L293,719L521,343Z" fill="#f8f8f8" stroke="#f8f8f8" stroke-width="1.51"/><path d="M1064,-372L681,-364L781,-38Z" fill="#efefef" stroke="#efefef" stroke-width="1.51"/><path d="M1486,-85L1107,-107L1231,167Z" fill="#eaeaea" stroke="#eaeaea" stroke-width="1.51"/><path d="M316,211L242,374L521,343Z" fill="#eeeeee" stroke="#eeeeee" stroke-width="1.51"/><path d="M781,-38L496,-35L574,97Z" fill="#f0f0f0" stroke="#f0f0f0" stroke-width="1.51"/><path d="M570,-198L496,-35L781,-38Z" fill="#f2f2f2" stroke="#f2f2f2" stroke-width="1.51"/><path d="M520,1135L682,1131L657,905Z" fill="#f2f2f2" stroke="#f2f2f2" stroke-width="1.51"/><path d="M657,905L682,1131L920,936Z" fill="#fbfbfb" stroke="#fbfbfb" stroke-width="1.51"/><path d="M920,936L1136,1187L1138,852Z" fill="#fdfdfd" stroke="#fdfdfd" stroke-width="1.51"/><path d="M520,1135L657,905L466,871Z" fill="#e9e9e9" stroke="#e9e9e9" stroke-width="1.51"/><path d="M1431,937L1115,797L1138,852Z" fill="#e5e5e5" stroke="#e5e5e5" stroke-width="1.51"/><path d="M1431,937L1553,626L1115,797Z" fill="#dfdfdf" stroke="#dfdfdf" stroke-width="1.51"/><path d="M293,719L263,837L466,871Z" fill="#eaeaea" stroke="#eaeaea" stroke-width="1.51"/><path d="M-67,646L263,837L293,719Z" fill="#dedede" stroke="#dedede" stroke-width="1.51"/><path d="M682,1131L958,1192L920,936Z" fill="#eeeeee" stroke="#eeeeee" stroke-width="1.51"/><path d="M1136,1187L1431,937L1138,852Z" fill="#ebebeb" stroke="#ebebeb" stroke-width="1.51"/><path d="M671,1514L1010,1379L958,1192Z" fill="#ebebeb" stroke="#ebebeb" stroke-width="1.51"/><path d="M263,837L520,1135L466,871Z" fill="#f8f8f8" stroke="#f8f8f8" stroke-width="1.51"/><path d="M958,1192L1136,1187L920,936Z" fill="#f5f5f5" stroke="#f5f5f5" stroke-width="1.51"/><path d="M496,-35L194,61L316,211Z" fill="#ececec" stroke="#ececec" stroke-width="1.51"/><path d="M681,-364L570,-198L781,-38Z" fill="#f9f9f9" stroke="#f9f9f9" stroke-width="1.51"/><path d="M1553,626L1623,395L1471,353Z" fill="#fdfdfd" stroke="#fdfdfd" stroke-width="1.51"/><path d="M1471,353L1709,98L1408,237Z" fill="#fefefe" stroke="#fefefe" stroke-width="1.51"/><path d="M1408,237L1486,-85L1231,167Z" fill="#e1e1e1" stroke="#e1e1e1" stroke-width="1.51"/><path d="M1431,937L1610,705L1553,626Z" fill="#eeeeee" stroke="#eeeeee" stroke-width="1.51"/><path d="M1553,626L1876,470L1623,395Z" fill="#f5f5f5" stroke="#f5f5f5" stroke-width="1.51"/><path d="M242,374L-67,646L293,719Z" fill="#d8d8d8" stroke="#d8d8d8" stroke-width="1.51"/><path d="M316,211L1,190L242,374Z" fill="#e2e2e2" stroke="#e2e2e2" stroke-width="1.51"/><path d="M246,-195L194,61L496,-35Z" fill="#f9f9f9" stroke="#f9f9f9" stroke-width="1.51"/><path d="M1590,-55L1486,-85L1408,237Z" fill="#f8f8f8" stroke="#f8f8f8" stroke-width="1.51"/><path d="M1064,-372L781,-38L916,-7Z" fill="#ebebeb" stroke="#ebebeb" stroke-width="1.51"/><path d="M1486,-85L1199,-301L1107,-107Z" fill="#e9e9e9" stroke="#e9e9e9" stroke-width="1.51"/><path d="M570,-198L246,-195L496,-35Z" fill="#f5f5f5" stroke="#f5f5f5" stroke-width="1.51"/><path d="M1064,-372L916,-7L1107,-107Z" fill="#f8f8f8" stroke="#f8f8f8" stroke-width="1.51"/><path d="M1199,-301L1064,-372L1107,-107Z" fill="#f9f9f9" stroke="#f9f9f9" stroke-width="1.51"/><path d="M1486,-85L1514,-213L1199,-301Z" fill="#fafafa" stroke="#fafafa" stroke-width="1.51"/><path d="M1709,98L1590,-55L1408,237Z" fill="#ececec" stroke="#ececec" stroke-width="1.51"/><path d="M958,1192L1010,1379L1136,1187Z" fill="#f9f9f9" stroke="#f9f9f9" stroke-width="1.51"/><path d="M1604,1171L1790,842L1431,937Z" fill="#ffffff" stroke="#ffffff" stroke-width="1.51"/><path d="M579,1356L958,1192L682,1131Z" fill="#fcfcfc" stroke="#fcfcfc" stroke-width="1.51"/><path d="M520,1135L579,1356L682,1131Z" fill="#efefef" stroke="#efefef" stroke-width="1.51"/><path d="M219,1217L579,1356L520,1135Z" fill="#f5f5f5" stroke="#f5f5f5" stroke-width="1.51"/><path d="M1936,234L1709,98L1623,395Z" fill="#fbfbfb" stroke="#fbfbfb" stroke-width="1.51"/><path d="M1623,395L1709,98L1471,353Z" fill="#f3f3f3" stroke="#f3f3f3" stroke-width="1.51"/><path d="M1,190L-36,342L242,374Z" fill="#e7e7e7" stroke="#e7e7e7" stroke-width="1.51"/><path d="M194,61L1,190L316,211Z" fill="#dbdbdb" stroke="#dbdbdb" stroke-width="1.51"/><path d="M-111,-10L1,190L194,61Z" fill="#ebebeb" stroke="#ebebeb" stroke-width="1.51"/><path d="M681,-364L246,-195L570,-198Z" fill="#ededed" stroke="#ededed" stroke-width="1.51"/><path d="M1595,-326L1514,-213L1590,-55Z" fill="#ffffff" stroke="#ffffff" stroke-width="1.51"/><path d="M1590,-55L1514,-213L1486,-85Z" fill="#ffffff" stroke="#ffffff" stroke-width="1.51"/><path d="M1199,-301L1595,-326L1064,-372Z" fill="#ebebeb" stroke="#ebebeb" stroke-width="1.51"/><path d="M263,837L219,1217L520,1135Z" fill="#fbfbfb" stroke="#fbfbfb" stroke-width="1.51"/><path d="M-36,342L-67,646L242,374Z" fill="#f8f8f8" stroke="#f8f8f8" stroke-width="1.51"/><path d="M1610,705L1876,470L1553,626Z" fill="#f0f0f0" stroke="#f0f0f0" stroke-width="1.51"/><path d="M1431,937L1790,842L1610,705Z" fill="#f0f0f0" stroke="#f0f0f0" stroke-width="1.51"/><path d="M1604,1171L1431,937L1555,1231Z" fill="#ffffff" stroke="#ffffff" stroke-width="1.51"/><path d="M22,1032L219,1217L263,837Z" fill="#eaeaea" stroke="#eaeaea" stroke-width="1.51"/><path d="M1555,1231L1431,937L1136,1187Z" fill="#f6f6f6" stroke="#f6f6f6" stroke-width="1.51"/><path d="M1790,842L1876,470L1610,705Z" fill="#fefefe" stroke="#fefefe" stroke-width="1.51"/><path d="M1300,1446L1555,1231L1136,1187Z" fill="#f1f1f1" stroke="#f1f1f1" stroke-width="1.51"/><path d="M-67,646L22,1032L263,837Z" fill="#e9e9e9" stroke="#e9e9e9" stroke-width="1.51"/><path d="M206,1407L671,1514L579,1356Z" fill="#efefef" stroke="#efefef" stroke-width="1.51"/><path d="M579,1356L671,1514L958,1192Z" fill="#fdfdfd" stroke="#fdfdfd" stroke-width="1.51"/><path d="M1010,1379L1300,1446L1136,1187Z" fill="#f6f6f6" stroke="#f6f6f6" stroke-width="1.51"/><path d="M671,1514L1300,1446L1010,1379Z" fill="#f4f4f4" stroke="#f4f4f4" stroke-width="1.51"/><path d="M1844,1214L1865,846L1790,842Z" fill="#ffffff" stroke="#ffffff" stroke-width="1.51"/><path d="M1790,842L1990,674L1876,470Z" fill="#fcfcfc" stroke="#fcfcfc" stroke-width="1.51"/><path d="M1864,-45L1595,-326L1590,-55Z" fill="#ffffff" stroke="#ffffff" stroke-width="1.51"/><path d="M1514,-213L1595,-326L1199,-301Z" fill="#fefefe" stroke="#fefefe" stroke-width="1.51"/><path d="M1864,-45L1590,-55L1709,98Z" fill="#ffffff" stroke="#ffffff" stroke-width="1.51"/><path d="M1876,470L1936,234L1623,395Z" fill="#eeeeee" stroke="#eeeeee" stroke-width="1.51"/><path d="M1990,674L1936,234L1876,470Z" fill="#fdfdfd" stroke="#fdfdfd" stroke-width="1.51"/><path d="M1300,1446L1469,1410L1555,1231Z" fill="#ffffff" stroke="#ffffff" stroke-width="1.51"/><path d="M1555,1231L1667,1374L1604,1171Z" fill="#ffffff" stroke="#ffffff" stroke-width="1.51"/><path d="M1604,1171L1844,1214L1790,842Z" fill="#ffffff" stroke="#ffffff" stroke-width="1.51"/><path d="M-36,342L-229,482L-67,646Z" fill="#f7f7f7" stroke="#f7f7f7" stroke-width="1.51"/><path d="M-186,1076L-35,1127L22,1032Z" fill="#ffffff" stroke="#ffffff" stroke-width="1.51"/><path d="M-225,196L-229,482L-36,342Z" fill="#e9e9e9" stroke="#e9e9e9" stroke-width="1.51"/><path d="M-225,196L-36,342L1,190Z" fill="#fbfbfb" stroke="#fbfbfb" stroke-width="1.51"/><path d="M246,-195L-111,-10L194,61Z" fill="#f1f1f1" stroke="#f1f1f1" stroke-width="1.51"/><path d="M-186,1076L22,1032L-67,646Z" fill="#ffffff" stroke="#ffffff" stroke-width="1.51"/><path d="M22,1032L-35,1127L219,1217Z" fill="#f6f6f6" stroke="#f6f6f6" stroke-width="1.51"/><path d="M219,1217L206,1407L579,1356Z" fill="#fcfcfc" stroke="#fcfcfc" stroke-width="1.51"/><path d="M1936,234L1864,-45L1709,98Z" fill="#ececec" stroke="#ececec" stroke-width="1.51"/><path d="M1844,1214L1990,674L1865,846Z" fill="#ffffff" stroke="#ffffff" stroke-width="1.51"/><path d="M1865,846L1990,674L1790,842Z" fill="#e8e8e8" stroke="#e8e8e8" stroke-width="1.51"/><path d="M-35,1127L206,1407L219,1217Z" fill="#eeeeee" stroke="#eeeeee" stroke-width="1.51"/><path d="M-111,-10L-225,196L1,190Z" fill="#ebebeb" stroke="#ebebeb" stroke-width="1.51"/><path d="M246,-195L29,-311L-111,-10Z" fill="#f8f8f8" stroke="#f8f8f8" stroke-width="1.51"/><path d="M-111,-10L-364,-93L-225,196Z" fill="#f8f8f8" stroke="#f8f8f8" stroke-width="1.51"/><path d="M681,-364L29,-311L246,-195Z" fill="#fafafa" stroke="#fafafa" stroke-width="1.51"/><path d="M1469,1410L1667,1374L1555,1231Z" fill="#ffffff" stroke="#ffffff" stroke-width="1.51"/><path d="M1995,1486L1667,1374L1469,1410Z" fill="#ffffff" stroke="#ffffff" stroke-width="1.51"/><path d="M1667,1374L1844,1214L1604,1171Z" fill="#ffffff" stroke="#ffffff" stroke-width="1.51"/><path d="M-35,1127L-156,1437L206,1407Z" fill="#fefefe" stroke="#fefefe" stroke-width="1.51"/><path d="M-348,892L-186,1076L-67,646Z" fill="#f9f9f9" stroke="#f9f9f9" stroke-width="1.51"/><path d="M-225,196L-359,596L-229,482Z" fill="#fafafa" stroke="#fafafa" stroke-width="1.51"/><path d="M-229,482L-359,596L-67,646Z" fill="#ebebeb" stroke="#ebebeb" stroke-width="1.51"/><path d="M-359,596L-348,892L-67,646Z" fill="#f7f7f7" stroke="#f7f7f7" stroke-width="1.51"/><path d="M1864,-45L1952,-263L1595,-326Z" fill="#ffffff" stroke="#ffffff" stroke-width="1.51"/><path d="M1936,234L1952,-263L1864,-45Z" fill="#ffffff" stroke="#ffffff" stroke-width="1.51"/><path d="M1990,674L1952,-263L1936,234Z" fill="#fdfdfd" stroke="#fdfdfd" stroke-width="1.51"/><path d="M-225,196L-364,-93L-359,596Z" fill="#fdfdfd" stroke="#fdfdfd" stroke-width="1.51"/><path d="M-250,-344L-364,-93L-111,-10Z" fill="#ffffff" stroke="#ffffff" stroke-width="1.51"/><path d="M681,-364L-250,-344L29,-311Z" fill="#ececec" stroke="#ececec" stroke-width="1.51"/><path d="M29,-311L-250,-344L-111,-10Z" fill="#ffffff" stroke="#ffffff" stroke-width="1.51"/><path d="M206,1407L-124,1509L671,1514Z" fill="#f1f1f1" stroke="#f1f1f1" stroke-width="1.51"/><path d="M-186,1076L-156,1437L-35,1127Z" fill="#ffffff" stroke="#ffffff" stroke-width="1.51"/><path d="M-348,892L-156,1437L-186,1076Z" fill="#ffffff" stroke="#ffffff" stroke-width="1.51"/><path d="M-156,1437L-124,1509L206,1407Z" fill="#ffffff" stroke="#ffffff" stroke-width="1.51"/><path d="M1667,1374L1995,1486L1844,1214Z" fill="#ffffff" stroke="#ffffff" stroke-width="1.51"/><path d="M1844,1214L1995,1486L1990,674Z" fill="#ffffff" stroke="#ffffff" stroke-width="1.51"/><path d="M1300,1446L1995,1486L1469,1410Z" fill="#ffffff" stroke="#ffffff" stroke-width="1.51"/><path d="M671,1514L1995,1486L1300,1446Z" fill="#f0f0f0" stroke="#f0f0f0" stroke-width="1.51"/></svg>